STARTFONT 2.1
FONT -Adobe-ITC Zapf Chancery-Medium-I-Normal--17-120-100-100-P-76-ISO8859-1
SIZE 12 100 100
FONTBOUNDINGBOX 20 17 -2 -4

STARTPROPERTIES 26
_DEC_DEVICE_FONTNAMES "PS=ZapfChancery-MediumItalic"
FONTNAME_REGISTRY ""
FAMILY_NAME "ITC Zapf Chancery"
FOUNDRY "Adobe"
WEIGHT_NAME "Medium"
SLANT "I"
SETWIDTH_NAME "Normal"
ADD_STYLE_NAME ""
PIXEL_SIZE 17
POINT_SIZE 120
RESOLUTION_X 100
RESOLUTION_Y 100
SPACING "P"
AVERAGE_WIDTH 76
CHARSET_REGISTRY "ISO8859"
CHARSET_ENCODING "1"
CHARSET_COLLECTIONS "ASCII ISO8859-1 ADOBE-STANDARD"
FULL_NAME "ITC Zapf Chancery Medium Italic"
COPYRIGHT "Copyright (c) 1991 Adobe Systems, Inc."
CAP_HEIGHT 10
X_HEIGHT 10
WEIGHT 10
QUAD_WIDTH 9
DEFAULT_CHAR 0
FONT_DESCENT 4
FONT_ASCENT 11
ENDPROPERTIES

CHARS 190

STARTCHAR space
ENCODING 32
SWIDTH 220 0
DWIDTH 3 0
BBX 1 1 0 0
BITMAP
00
ENDCHAR

STARTCHAR exclam
ENCODING 33
SWIDTH 280 0
DWIDTH 5 0
BBX 4 10 2 0
BITMAP
10
10
20
20
20
40
40
00
40
80
ENDCHAR

STARTCHAR quotedbl
ENCODING 34
SWIDTH 220 0
DWIDTH 4 0
BBX 3 3 3 8
BITMAP
A0
A0
A0
ENDCHAR

STARTCHAR numbersign
ENCODING 35
SWIDTH 440 0
DWIDTH 7 0
BBX 10 10 0 0
BITMAP
0480
0480
0900
3FC0
1200
1200
FF00
2400
4800
4800
ENDCHAR

STARTCHAR dollar
ENCODING 36
SWIDTH 440 0
DWIDTH 7 0
BBX 7 14 1 -2
BITMAP
04
04
0E
14
28
28
38
1C
14
14
28
F0
20
20
ENDCHAR

STARTCHAR percent
ENCODING 37
SWIDTH 680 0
DWIDTH 12 0
BBX 11 10 2 0
BITMAP
2080
5100
9100
9240
94A0
A520
4920
1120
1140
2080
ENDCHAR

STARTCHAR ampersand
ENCODING 38
SWIDTH 780 0
DWIDTH 13 0
BBX 13 9 1 0
BITMAP
0200
0208
3408
49F0
9240
E280
8080
C300
7C00
ENDCHAR

STARTCHAR quoteright
ENCODING 39
SWIDTH 240 0
DWIDTH 4 0
BBX 3 4 3 7
BITMAP
20
20
40
80
ENDCHAR

STARTCHAR parenleft
ENCODING 40
SWIDTH 260 0
DWIDTH 4 0
BBX 5 14 2 -3
BITMAP
08
10
20
20
40
40
40
80
80
80
80
80
80
80
ENDCHAR

STARTCHAR parenright
ENCODING 41
SWIDTH 220 0
DWIDTH 4 0
BBX 5 14 0 -3
BITMAP
08
08
08
08
08
08
08
10
10
10
20
20
40
80
ENDCHAR

STARTCHAR asterisk
ENCODING 42
SWIDTH 420 0
DWIDTH 7 0
BBX 4 5 4 7
BITMAP
20
F0
60
F0
40
ENDCHAR

STARTCHAR plus
ENCODING 43
SWIDTH 520 0
DWIDTH 9 0
BBX 7 7 2 0
BITMAP
10
10
10
FE
10
10
10
ENDCHAR

STARTCHAR comma
ENCODING 44
SWIDTH 220 0
DWIDTH 3 0
BBX 3 4 0 -1
BITMAP
20
20
40
80
ENDCHAR

STARTCHAR minus
ENCODING 45
SWIDTH 520 0
DWIDTH 9 0
BBX 8 1 1 3
BITMAP
FF
ENDCHAR

STARTCHAR period
ENCODING 46
SWIDTH 220 0
DWIDTH 3 0
BBX 2 2 1 0
BITMAP
40
80
ENDCHAR

STARTCHAR slash
ENCODING 47
SWIDTH 340 0
DWIDTH 6 0
BBX 9 14 0 -3
BITMAP
0080
0080
0100
0200
0200
0400
0800
0800
1000
2000
2000
4000
8000
8000
ENDCHAR

STARTCHAR zero
ENCODING 48
SWIDTH 440 0
DWIDTH 7 0
BBX 6 10 2 0
BITMAP
18
24
44
44
84
84
88
88
90
60
ENDCHAR

STARTCHAR one
ENCODING 49
SWIDTH 440 0
DWIDTH 7 0
BBX 6 10 1 0
BITMAP
04
18
28
08
08
10
10
10
10
FC
ENDCHAR

STARTCHAR two
ENCODING 50
SWIDTH 440 0
DWIDTH 7 0
BBX 8 10 1 0
BITMAP
0C
12
22
22
04
08
10
21
72
8C
ENDCHAR

STARTCHAR three
ENCODING 51
SWIDTH 440 0
DWIDTH 7 0
BBX 7 10 1 0
BITMAP
0C
12
22
04
18
04
04
04
88
70
ENDCHAR

STARTCHAR four
ENCODING 52
SWIDTH 440 0
DWIDTH 7 0
BBX 7 10 1 0
BITMAP
02
06
0A
14
24
44
FE
08
08
08
ENDCHAR

STARTCHAR five
ENCODING 53
SWIDTH 440 0
DWIDTH 7 0
BBX 8 11 1 0
BITMAP
01
1E
10
10
20
38
04
04
04
08
F0
ENDCHAR

STARTCHAR six
ENCODING 54
SWIDTH 440 0
DWIDTH 7 0
BBX 6 10 2 0
BITMAP
1C
20
40
40
80
B8
C4
84
88
70
ENDCHAR

STARTCHAR seven
ENCODING 55
SWIDTH 440 0
DWIDTH 7 0
BBX 7 11 2 0
BITMAP
80
FE
04
08
10
20
20
40
40
40
40
ENDCHAR

STARTCHAR eight
ENCODING 56
SWIDTH 440 0
DWIDTH 7 0
BBX 7 10 1 0
BITMAP
0C
12
22
24
38
44
84
84
88
70
ENDCHAR

STARTCHAR nine
ENCODING 57
SWIDTH 440 0
DWIDTH 7 0
BBX 6 10 2 0
BITMAP
38
44
84
8C
74
04
08
08
10
E0
ENDCHAR

STARTCHAR colon
ENCODING 58
SWIDTH 260 0
DWIDTH 4 0
BBX 3 7 2 0
BITMAP
20
40
00
00
00
40
80
ENDCHAR

STARTCHAR semicolon
ENCODING 59
SWIDTH 240 0
DWIDTH 4 0
BBX 4 8 1 -1
BITMAP
10
20
00
00
20
20
40
80
ENDCHAR

STARTCHAR less
ENCODING 60
SWIDTH 520 0
DWIDTH 9 0
BBX 7 7 2 0
BITMAP
06
18
60
80
60
18
06
ENDCHAR

STARTCHAR equal
ENCODING 61
SWIDTH 520 0
DWIDTH 9 0
BBX 7 3 2 2
BITMAP
FE
00
FE
ENDCHAR

STARTCHAR greater
ENCODING 62
SWIDTH 520 0
DWIDTH 9 0
BBX 7 7 2 0
BITMAP
C0
30
0C
02
0C
30
C0
ENDCHAR

STARTCHAR question
ENCODING 63
SWIDTH 380 0
DWIDTH 6 0
BBX 7 10 1 0
BITMAP
1C
22
02
04
38
20
40
00
40
80
ENDCHAR

STARTCHAR at
ENCODING 64
SWIDTH 700 0
DWIDTH 12 0
BBX 11 12 2 0
BITMAP
0F00
30C0
4040
46A0
8920
9120
9320
9220
5240
4D80
3040
0F80
ENDCHAR

STARTCHAR A
ENCODING 65
SWIDTH 620 0
DWIDTH 10 0
BBX 11 10 0 0
BITMAP
0E80
1180
2180
2280
2480
0880
0F80
1080
2080
C0E0
ENDCHAR

STARTCHAR B
ENCODING 66
SWIDTH 600 0
DWIDTH 10 0
BBX 8 10 2 0
BITMAP
3E
49
89
92
9E
11
11
21
22
FC
ENDCHAR

STARTCHAR C
ENCODING 67
SWIDTH 520 0
DWIDTH 9 0
BBX 9 11 2 -1
BITMAP
0700
1980
2100
4000
4000
8000
8000
8000
8000
C600
7800
ENDCHAR

STARTCHAR D
ENCODING 68
SWIDTH 700 0
DWIDTH 11 0
BBX 10 10 2 0
BITMAP
3F00
4880
8840
8840
9040
1040
1080
1080
2300
FC00
ENDCHAR

STARTCHAR E
ENCODING 69
SWIDTH 620 0
DWIDTH 10 0
BBX 10 10 1 0
BITMAP
1FC0
2440
4400
4800
4800
0E00
1800
1000
2080
FF00
ENDCHAR

STARTCHAR F
ENCODING 70
SWIDTH 580 0
DWIDTH 10 0
BBX 11 12 1 -2
BITMAP
0FE0
1200
2200
2400
2400
0700
0C00
0800
0800
0800
1000
E000
ENDCHAR

STARTCHAR G
ENCODING 71
SWIDTH 620 0
DWIDTH 10 0
BBX 10 14 2 -4
BITMAP
0700
1980
2100
4000
4000
87C0
8100
8300
C600
7A00
0400
0400
0800
7000
ENDCHAR

STARTCHAR H
ENCODING 72
SWIDTH 680 0
DWIDTH 11 0
BBX 15 12 0 0
BITMAP
0006
0008
0F10
1210
2210
2420
27E0
0420
0820
0840
1040
E070
ENDCHAR

STARTCHAR I
ENCODING 73
SWIDTH 380 0
DWIDTH 6 0
BBX 7 10 1 0
BITMAP
3E
08
08
18
10
10
30
20
20
F8
ENDCHAR

STARTCHAR J
ENCODING 74
SWIDTH 400 0
DWIDTH 7 0
BBX 9 12 0 -2
BITMAP
0780
0900
1100
1200
1200
0200
0200
0400
0400
0400
0800
F000
ENDCHAR

STARTCHAR K
ENCODING 75
SWIDTH 660 0
DWIDTH 11 0
BBX 13 13 1 -3
BITMAP
1F38
2250
4280
4500
4600
0500
0900
0980
1080
F880
00C0
0048
0038
ENDCHAR

STARTCHAR L
ENCODING 76
SWIDTH 580 0
DWIDTH 10 0
BBX 10 10 1 0
BITMAP
0700
0800
0800
1000
1000
1000
1000
2040
2080
FF00
ENDCHAR

STARTCHAR M
ENCODING 77
SWIDTH 840 0
DWIDTH 14 0
BBX 16 11 1 0
BITMAP
0003
1C04
2408
4418
4628
4E48
0A90
0A90
1310
1220
E23C
ENDCHAR

STARTCHAR N
ENCODING 78
SWIDTH 700 0
DWIDTH 12 0
BBX 15 15 1 -3
BITMAP
0006
0008
1E10
2210
4220
4720
4520
0540
0940
09C0
10C0
E0C0
0040
0022
001C
ENDCHAR

STARTCHAR O
ENCODING 79
SWIDTH 600 0
DWIDTH 10 0
BBX 9 10 2 0
BITMAP
0F00
3180
4080
4080
8080
8080
8100
8100
C600
7800
ENDCHAR

STARTCHAR P
ENCODING 80
SWIDTH 540 0
DWIDTH 9 0
BBX 10 10 1 0
BITMAP
3F80
4440
8C40
8840
8880
0F00
1800
1000
1000
FE00
ENDCHAR

STARTCHAR Q
ENCODING 81
SWIDTH 600 0
DWIDTH 10 0
BBX 12 13 2 -3
BITMAP
0F00
3180
4080
4080
8080
8080
8100
8100
C600
7C00
0600
0310
01E0
ENDCHAR

STARTCHAR R
ENCODING 82
SWIDTH 600 0
DWIDTH 10 0
BBX 13 13 1 -3
BITMAP
1F00
2480
4480
4900
4E00
0A00
1200
1200
2300
F900
0180
0088
0070
ENDCHAR

STARTCHAR S
ENCODING 83
SWIDTH 460 0
DWIDTH 7 0
BBX 9 11 0 -1
BITMAP
0700
0980
1000
1000
1800
0C00
0600
0200
8200
C400
7800
ENDCHAR

STARTCHAR T
ENCODING 84
SWIDTH 500 0
DWIDTH 8 0
BBX 11 11 1 0
BITMAP
0020
3FC0
4200
8200
8200
8400
0400
0400
0800
1000
7C00
ENDCHAR

STARTCHAR U
ENCODING 85
SWIDTH 740 0
DWIDTH 12 0
BBX 11 10 2 0
BITMAP
3CE0
4840
8840
9040
90C0
2080
2080
2080
2380
1CE0
ENDCHAR

STARTCHAR V
ENCODING 86
SWIDTH 640 0
DWIDTH 11 0
BBX 11 12 2 0
BITMAP
0060
0020
3820
5040
9040
9080
9080
1100
1200
1400
1800
1000
ENDCHAR

STARTCHAR W
ENCODING 87
SWIDTH 880 0
DWIDTH 15 0
BBX 15 12 2 0
BITMAP
0006
0002
3842
50C2
90C4
9144
9248
1248
1450
1860
1860
1040
ENDCHAR

STARTCHAR X
ENCODING 88
SWIDTH 560 0
DWIDTH 9 0
BBX 12 10 0 0
BITMAP
1C70
0480
0680
0300
0200
0200
0700
0900
1100
E1C0
ENDCHAR

STARTCHAR Y
ENCODING 89
SWIDTH 560 0
DWIDTH 10 0
BBX 12 13 2 -2
BITMAP
0030
3C40
4680
8680
8300
8300
0200
0200
0200
0400
0400
0800
F000
ENDCHAR

STARTCHAR Z
ENCODING 90
SWIDTH 620 0
DWIDTH 10 0
BBX 10 11 1 0
BITMAP
0040
1FC0
2080
2100
0200
0400
0800
1040
2040
7880
8F00
ENDCHAR

STARTCHAR bracketleft
ENCODING 91
SWIDTH 240 0
DWIDTH 4 0
BBX 6 14 1 -3
BITMAP
1C
10
10
20
20
20
20
40
40
40
40
80
80
E0
ENDCHAR

STARTCHAR backslash
ENCODING 92
SWIDTH 480 0
DWIDTH 8 0
BBX 5 10 3 0
BITMAP
80
80
40
40
20
20
10
10
08
08
ENDCHAR

STARTCHAR bracketright
ENCODING 93
SWIDTH 320 0
DWIDTH 5 0
BBX 6 14 0 -3
BITMAP
1C
04
04
08
08
08
08
10
10
10
10
20
20
E0
ENDCHAR

STARTCHAR asciicircum
ENCODING 94
SWIDTH 520 0
DWIDTH 9 0
BBX 4 4 4 7
BITMAP
60
60
90
90
ENDCHAR

STARTCHAR underscore
ENCODING 95
SWIDTH 500 0
DWIDTH 8 0
BBX 8 1 0 -2
BITMAP
FF
ENDCHAR

STARTCHAR quoteleft
ENCODING 96
SWIDTH 240 0
DWIDTH 4 0
BBX 3 4 3 7
BITMAP
20
40
80
80
ENDCHAR

STARTCHAR a
ENCODING 97
SWIDTH 420 0
DWIDTH 7 0
BBX 6 7 2 0
BITMAP
3C
48
88
90
90
B4
D8
ENDCHAR

STARTCHAR b
ENCODING 98
SWIDTH 420 0
DWIDTH 7 0
BBX 7 11 1 0
BITMAP
0E
10
10
20
2C
34
24
44
44
48
B0
ENDCHAR

STARTCHAR c
ENCODING 99
SWIDTH 340 0
DWIDTH 5 0
BBX 4 7 2 0
BITMAP
30
50
80
80
80
90
E0
ENDCHAR

STARTCHAR d
ENCODING 100
SWIDTH 440 0
DWIDTH 7 0
BBX 9 11 2 0
BITMAP
0380
0400
0400
0800
3800
4800
8800
9000
9000
B400
D800
ENDCHAR

STARTCHAR e
ENCODING 101
SWIDTH 340 0
DWIDTH 6 0
BBX 4 7 2 0
BITMAP
30
50
90
E0
80
90
E0
ENDCHAR

STARTCHAR f
ENCODING 102
SWIDTH 320 0
DWIDTH 5 0
BBX 11 15 -2 -4
BITMAP
00E0
0100
0200
0200
0200
0400
1F00
0400
0400
0400
0800
0800
0800
1000
E000
ENDCHAR

STARTCHAR g
ENCODING 103
SWIDTH 400 0
DWIDTH 7 0
BBX 9 11 -1 -4
BITMAP
0780
0880
1100
1100
1700
1900
1200
2200
4200
8400
7800
ENDCHAR

STARTCHAR h
ENCODING 104
SWIDTH 440 0
DWIDTH 7 0
BBX 7 11 1 0
BITMAP
0E
10
10
20
2E
52
64
44
88
8A
8C
ENDCHAR

STARTCHAR i
ENCODING 105
SWIDTH 240 0
DWIDTH 4 0
BBX 4 10 1 0
BITMAP
10
20
00
20
E0
20
40
40
50
60
ENDCHAR

STARTCHAR j
ENCODING 106
SWIDTH 220 0
DWIDTH 4 0
BBX 7 14 -2 -4
BITMAP
02
04
00
04
1C
04
04
08
08
08
08
10
10
E0
ENDCHAR

STARTCHAR k
ENCODING 107
SWIDTH 440 0
DWIDTH 7 0
BBX 10 14 1 -3
BITMAP
0E00
1000
2000
2000
2600
4A00
5000
6000
9000
9000
8800
0800
0440
0380
ENDCHAR

STARTCHAR l
ENCODING 108
SWIDTH 240 0
DWIDTH 4 0
BBX 6 11 2 0
BITMAP
1C
20
20
40
40
40
40
80
80
A0
C0
ENDCHAR

STARTCHAR m
ENCODING 109
SWIDTH 620 0
DWIDTH 10 0
BBX 11 7 1 0
BITMAP
2DC0
F640
2480
4880
4900
9120
91C0
ENDCHAR

STARTCHAR n
ENCODING 110
SWIDTH 460 0
DWIDTH 7 0
BBX 7 7 1 0
BITMAP
2E
F2
24
44
48
8A
8C
ENDCHAR

STARTCHAR o
ENCODING 111
SWIDTH 400 0
DWIDTH 7 0
BBX 5 7 2 0
BITMAP
38
48
88
88
88
90
E0
ENDCHAR

STARTCHAR p
ENCODING 112
SWIDTH 440 0
DWIDTH 7 0
BBX 8 11 0 -4
BITMAP
0B
3D
11
11
22
26
38
20
40
40
E0
ENDCHAR

STARTCHAR q
ENCODING 113
SWIDTH 400 0
DWIDTH 7 0
BBX 6 12 2 -4
BITMAP
04
3C
48
88
88
90
B0
D0
10
20
20
70
ENDCHAR

STARTCHAR r
ENCODING 114
SWIDTH 300 0
DWIDTH 5 0
BBX 6 7 1 0
BITMAP
2C
F4
20
20
40
40
40
ENDCHAR

STARTCHAR s
ENCODING 115
SWIDTH 320 0
DWIDTH 5 0
BBX 5 7 1 0
BITMAP
18
28
40
20
10
90
E0
ENDCHAR

STARTCHAR t
ENCODING 116
SWIDTH 320 0
DWIDTH 5 0
BBX 5 8 1 0
BITMAP
30
20
F8
20
40
48
50
60
ENDCHAR

STARTCHAR u
ENCODING 117
SWIDTH 460 0
DWIDTH 7 0
BBX 7 7 1 0
BITMAP
32
E2
24
44
48
5A
6C
ENDCHAR

STARTCHAR v
ENCODING 118
SWIDTH 440 0
DWIDTH 7 0
BBX 7 8 1 0
BITMAP
04
72
92
A2
24
44
48
70
ENDCHAR

STARTCHAR w
ENCODING 119
SWIDTH 680 0
DWIDTH 11 0
BBX 10 8 2 0
BITMAP
0080
7A40
9240
9240
2480
4C80
5500
6600
ENDCHAR

STARTCHAR x
ENCODING 120
SWIDTH 420 0
DWIDTH 7 0
BBX 9 10 1 -3
BITMAP
2200
5400
1800
3000
5000
9000
9000
0800
0880
0700
ENDCHAR

STARTCHAR y
ENCODING 121
SWIDTH 400 0
DWIDTH 7 0
BBX 8 11 0 -4
BITMAP
19
71
12
22
22
2C
34
04
04
08
F0
ENDCHAR

STARTCHAR z
ENCODING 122
SWIDTH 440 0
DWIDTH 7 0
BBX 8 8 1 0
BITMAP
01
3E
24
08
10
22
62
9C
ENDCHAR

STARTCHAR braceleft
ENCODING 123
SWIDTH 240 0
DWIDTH 4 0
BBX 6 15 2 -3
BITMAP
0C
10
10
20
20
20
40
80
40
40
40
80
80
80
40
ENDCHAR

STARTCHAR bar
ENCODING 124
SWIDTH 520 0
DWIDTH 9 0
BBX 1 10 5 0
BITMAP
80
80
80
80
80
80
80
80
80
80
ENDCHAR

STARTCHAR braceright
ENCODING 125
SWIDTH 240 0
DWIDTH 4 0
BBX 6 15 -1 -3
BITMAP
08
04
04
04
08
08
08
04
08
10
10
10
20
20
C0
ENDCHAR

STARTCHAR asciitilde
ENCODING 126
SWIDTH 520 0
DWIDTH 9 0
BBX 8 2 1 2
BITMAP
71
8E
ENDCHAR

STARTCHAR exclamdown
ENCODING 161
SWIDTH 280 0
DWIDTH 5 0
BBX 4 10 1 -3
BITMAP
10
20
00
20
20
40
40
40
80
80
ENDCHAR

STARTCHAR cent
ENCODING 162
SWIDTH 440 0
DWIDTH 7 0
BBX 6 12 2 -1
BITMAP
08
08
3C
54
50
90
A0
A0
A8
70
40
40
ENDCHAR

STARTCHAR sterling
ENCODING 163
SWIDTH 440 0
DWIDTH 7 0
BBX 7 11 0 -1
BITMAP
06
08
08
10
3C
10
10
20
22
7C
80
ENDCHAR

STARTCHAR currency
ENCODING 164
SWIDTH 440 0
DWIDTH 7 0
BBX 7 7 1 2
BITMAP
BA
44
82
82
82
44
BA
ENDCHAR

STARTCHAR yen
ENCODING 165
SWIDTH 440 0
DWIDTH 7 0
BBX 11 10 0 0
BITMAP
70E0
9900
0A00
0C00
3F00
0800
7E00
1000
1000
7C00
ENDCHAR

STARTCHAR brokenbar
ENCODING 166
SWIDTH 520 0
DWIDTH 9 0
BBX 1 10 5 0
BITMAP
80
80
80
80
00
00
80
80
80
80
ENDCHAR

STARTCHAR section
ENCODING 167
SWIDTH 420 0
DWIDTH 7 0
BBX 7 13 1 -3
BITMAP
0E
10
10
30
58
48
6C
24
34
18
10
10
E0
ENDCHAR

STARTCHAR dieresis
ENCODING 168
SWIDTH 360 0
DWIDTH 6 0
BBX 3 1 5 8
BITMAP
A0
ENDCHAR

STARTCHAR copyright
ENCODING 169
SWIDTH 740 0
DWIDTH 12 0
BBX 11 11 2 0
BITMAP
1F00
2080
4740
8920
9020
9020
9020
8920
4640
2080
1F00
ENDCHAR

STARTCHAR ordfeminine
ENCODING 170
SWIDTH 260 0
DWIDTH 4 0
BBX 4 6 1 4
BITMAP
30
50
70
50
00
E0
ENDCHAR

STARTCHAR guillemotleft
ENCODING 171
SWIDTH 340 0
DWIDTH 6 0
BBX 6 7 1 0
BITMAP
24
24
48
90
90
48
48
ENDCHAR

STARTCHAR logicalnot
ENCODING 172
SWIDTH 520 0
DWIDTH 9 0
BBX 9 4 0 1
BITMAP
FF80
0080
0080
0080
ENDCHAR

STARTCHAR hyphen
ENCODING 173
SWIDTH 280 0
DWIDTH 4 0
BBX 3 1 2 3
BITMAP
E0
ENDCHAR

STARTCHAR registered
ENCODING 174
SWIDTH 740 0
DWIDTH 12 0
BBX 11 11 2 0
BITMAP
1F00
2080
5E40
8920
8920
8E20
8A20
8920
5DC0
2080
1F00
ENDCHAR

STARTCHAR macron
ENCODING 175
SWIDTH 440 0
DWIDTH 7 0
BBX 5 1 4 8
BITMAP
F8
ENDCHAR

STARTCHAR degree
ENCODING 176
SWIDTH 400 0
DWIDTH 7 0
BBX 4 4 3 6
BITMAP
60
90
90
60
ENDCHAR

STARTCHAR plusminus
ENCODING 177
SWIDTH 520 0
DWIDTH 9 0
BBX 7 7 2 0
BITMAP
10
10
FE
10
10
00
FE
ENDCHAR

STARTCHAR twosuperior
ENCODING 178
SWIDTH 264 0
DWIDTH 4 0
BBX 5 6 1 4
BITMAP
30
48
10
20
48
B0
ENDCHAR

STARTCHAR threesuperior
ENCODING 179
SWIDTH 264 0
DWIDTH 4 0
BBX 5 6 1 4
BITMAP
38
48
10
08
90
60
ENDCHAR

STARTCHAR acute
ENCODING 180
SWIDTH 300 0
DWIDTH 5 0
BBX 3 3 4 8
BITMAP
20
40
80
ENDCHAR

STARTCHAR mu
ENCODING 181
SWIDTH 460 0
DWIDTH 7 0
BBX 8 11 0 -4
BITMAP
19
71
12
22
24
2D
76
40
40
80
80
ENDCHAR

STARTCHAR paragraph
ENCODING 182
SWIDTH 500 0
DWIDTH 8 0
BBX 11 15 0 -4
BITMAP
0020
0FC0
1F00
3F00
3F00
3E00
1E00
0200
0200
0400
0400
0400
0400
8800
7000
ENDCHAR

STARTCHAR periodcentered
ENCODING 183
SWIDTH 220 0
DWIDTH 4 0
BBX 2 2 2 3
BITMAP
C0
C0
ENDCHAR

STARTCHAR cedilla
ENCODING 184
SWIDTH 300 0
DWIDTH 5 0
BBX 3 4 1 -3
BITMAP
20
40
20
C0
ENDCHAR

STARTCHAR onesuperior
ENCODING 185
SWIDTH 264 0
DWIDTH 4 0
BBX 4 6 1 4
BITMAP
10
70
20
20
20
F0
ENDCHAR

STARTCHAR ordmasculine
ENCODING 186
SWIDTH 260 0
DWIDTH 4 0
BBX 4 6 2 4
BITMAP
30
50
50
60
00
E0
ENDCHAR

STARTCHAR guillemotright
ENCODING 187
SWIDTH 380 0
DWIDTH 6 0
BBX 6 7 1 0
BITMAP
48
48
24
24
48
90
90
ENDCHAR

STARTCHAR onequarter
ENCODING 188
SWIDTH 660 0
DWIDTH 11 0
BBX 10 10 2 0
BITMAP
1100
7100
2200
2400
2480
F980
0A80
1500
27C0
2100
ENDCHAR

STARTCHAR onehalf
ENCODING 189
SWIDTH 660 0
DWIDTH 11 0
BBX 10 10 2 0
BITMAP
1100
7100
2200
2400
2580
FA40
0880
1100
2240
2580
ENDCHAR

STARTCHAR threequarters
ENCODING 190
SWIDTH 660 0
DWIDTH 11 0
BBX 11 10 1 0
BITMAP
3880
4880
1100
0A00
9240
64C0
0540
0A80
13E0
1080
ENDCHAR

STARTCHAR questiondown
ENCODING 191
SWIDTH 400 0
DWIDTH 6 0
BBX 7 10 0 -3
BITMAP
02
04
00
04
08
38
40
80
88
70
ENDCHAR

STARTCHAR Agrave
ENCODING 192
SWIDTH 620 0
DWIDTH 10 0
BBX 11 13 0 0
BITMAP
0400
0200
0100
0000
0E80
1180
2180
2280
2480
0F80
1080
2080
C0E0
ENDCHAR

STARTCHAR Aacute
ENCODING 193
SWIDTH 620 0
DWIDTH 10 0
BBX 11 13 0 0
BITMAP
0040
0080
0100
0000
0E80
1180
2180
2280
2480
0F80
1080
2080
C0E0
ENDCHAR

STARTCHAR Acircumflex
ENCODING 194
SWIDTH 620 0
DWIDTH 10 0
BBX 11 13 0 0
BITMAP
0100
0280
0440
0000
0E80
1180
2180
2280
2480
0F80
1080
2080
C0E0
ENDCHAR

STARTCHAR Atilde
ENCODING 195
SWIDTH 620 0
DWIDTH 10 0
BBX 11 12 0 0
BITMAP
0640
0980
0000
0E80
1180
2180
2280
2480
0F80
1080
2080
C0E0
ENDCHAR

STARTCHAR Adieresis
ENCODING 196
SWIDTH 620 0
DWIDTH 10 0
BBX 11 11 0 0
BITMAP
0280
0000
0E80
1180
2180
2280
2480
0F80
1080
2080
C0E0
ENDCHAR

STARTCHAR Aring
ENCODING 197
SWIDTH 620 0
DWIDTH 10 0
BBX 11 13 0 0
BITMAP
0180
0240
0240
0180
0E80
1180
2180
2280
2480
0F80
1080
2080
C0E0
ENDCHAR

STARTCHAR AE
ENCODING 198
SWIDTH 740 0
DWIDTH 12 0
BBX 13 10 0 0
BITMAP
03F8
00C8
0140
0280
0480
0FE0
1100
2108
4210
CFF0
ENDCHAR

STARTCHAR Ccedilla
ENCODING 199
SWIDTH 520 0
DWIDTH 9 0
BBX 9 13 2 -3
BITMAP
0700
1980
2100
4000
4000
8000
8000
8000
8000
C600
7800
1000
2000
ENDCHAR

STARTCHAR Egrave
ENCODING 200
SWIDTH 620 0
DWIDTH 10 0
BBX 10 13 1 0
BITMAP
0800
0400
0200
0000
1FC0
2440
4400
4800
4E00
1800
1000
2080
FF00
ENDCHAR

STARTCHAR Eacute
ENCODING 201
SWIDTH 620 0
DWIDTH 10 0
BBX 10 13 1 0
BITMAP
0080
0100
0200
0000
1FC0
2440
4400
4800
4E00
1800
1000
2080
FF00
ENDCHAR

STARTCHAR Ecircumflex
ENCODING 202
SWIDTH 620 0
DWIDTH 10 0
BBX 10 13 1 0
BITMAP
0200
0500
0880
0000
1FC0
2440
4400
4800
4E00
1800
1000
2080
FF00
ENDCHAR

STARTCHAR Edieresis
ENCODING 203
SWIDTH 620 0
DWIDTH 10 0
BBX 10 11 1 0
BITMAP
0500
0000
1FC0
2440
4400
4800
4E00
1800
1000
2080
FF00
ENDCHAR

STARTCHAR Igrave
ENCODING 204
SWIDTH 380 0
DWIDTH 6 0
BBX 7 13 1 0
BITMAP
20
10
08
00
3E
08
08
18
10
30
20
20
F8
ENDCHAR

STARTCHAR Iacute
ENCODING 205
SWIDTH 380 0
DWIDTH 6 0
BBX 7 13 1 0
BITMAP
02
04
08
00
3E
08
08
18
10
30
20
20
F8
ENDCHAR

STARTCHAR Icircumflex
ENCODING 206
SWIDTH 380 0
DWIDTH 6 0
BBX 7 13 1 0
BITMAP
08
14
22
00
3E
08
08
18
10
30
20
20
F8
ENDCHAR

STARTCHAR Idieresis
ENCODING 207
SWIDTH 380 0
DWIDTH 6 0
BBX 7 11 1 0
BITMAP
14
00
3E
08
08
18
10
30
20
20
F8
ENDCHAR

STARTCHAR Eth
ENCODING 208
SWIDTH 700 0
DWIDTH 11 0
BBX 10 10 2 0
BITMAP
3F00
4880
8840
8840
9E40
1040
1080
1080
2300
FC00
ENDCHAR

STARTCHAR Ntilde
ENCODING 209
SWIDTH 700 0
DWIDTH 12 0
BBX 15 15 1 -3
BITMAP
0320
04C6
0008
1E10
2210
4220
4720
4540
0940
09C0
10C0
E0C0
0040
0022
001C
ENDCHAR

STARTCHAR Ograve
ENCODING 210
SWIDTH 600 0
DWIDTH 10 0
BBX 9 13 2 0
BITMAP
1000
0800
0400
0000
0F00
3180
4080
4080
8080
8100
8100
C600
7800
ENDCHAR

STARTCHAR Oacute
ENCODING 211
SWIDTH 600 0
DWIDTH 10 0
BBX 9 13 2 0
BITMAP
0080
0100
0200
0000
0F00
3180
4080
4080
8080
8100
8100
C600
7800
ENDCHAR

STARTCHAR Ocircumflex
ENCODING 212
SWIDTH 600 0
DWIDTH 10 0
BBX 9 13 2 0
BITMAP
0400
0A00
1100
0000
0F00
3180
4080
4080
8080
8100
8100
C600
7800
ENDCHAR

STARTCHAR Otilde
ENCODING 213
SWIDTH 600 0
DWIDTH 10 0
BBX 9 12 2 0
BITMAP
0C80
1300
0000
0F00
3180
4080
4080
8080
8100
8100
C600
7800
ENDCHAR

STARTCHAR Odieresis
ENCODING 214
SWIDTH 600 0
DWIDTH 10 0
BBX 9 11 2 0
BITMAP
0500
0000
0F00
3180
4080
4080
8080
8100
8100
C600
7800
ENDCHAR

STARTCHAR multiply
ENCODING 215
SWIDTH 520 0
DWIDTH 9 0
BBX 7 7 2 0
BITMAP
82
44
28
10
28
44
82
ENDCHAR

STARTCHAR Oslash
ENCODING 216
SWIDTH 660 0
DWIDTH 11 0
BBX 11 14 1 -2
BITMAP
0020
0040
0780
18C0
2140
2240
4440
4440
4880
5080
6300
3C00
4000
8000
ENDCHAR

STARTCHAR Ugrave
ENCODING 217
SWIDTH 740 0
DWIDTH 12 0
BBX 11 13 2 0
BITMAP
0800
0400
0200
0000
3CE0
4840
8840
9040
90C0
2080
2080
2380
1CE0
ENDCHAR

STARTCHAR Uacute
ENCODING 218
SWIDTH 740 0
DWIDTH 12 0
BBX 11 13 2 0
BITMAP
0080
0100
0200
0000
3CE0
4840
8840
9040
90C0
2080
2080
2380
1CE0
ENDCHAR

STARTCHAR Ucircumflex
ENCODING 219
SWIDTH 740 0
DWIDTH 12 0
BBX 11 13 2 0
BITMAP
0200
0500
0880
0000
3CE0
4840
8840
9040
90C0
2080
2080
2380
1CE0
ENDCHAR

STARTCHAR Udieresis
ENCODING 220
SWIDTH 740 0
DWIDTH 12 0
BBX 11 11 2 0
BITMAP
0280
0000
3CE0
4840
8840
9040
90C0
2080
2080
2380
1CE0
ENDCHAR

STARTCHAR Yacute
ENCODING 221
SWIDTH 560 0
DWIDTH 10 0
BBX 12 15 2 -2
BITMAP
0040
0080
0100
0030
3C40
4680
8680
8300
8300
0200
0200
0400
0400
0800
F000
ENDCHAR

STARTCHAR Thorn
ENCODING 222
SWIDTH 540 0
DWIDTH 9 0
BBX 9 10 1 0
BITMAP
3F80
4400
8700
8880
8880
0880
1300
1C00
1000
FE00
ENDCHAR

STARTCHAR germandbls
ENCODING 223
SWIDTH 420 0
DWIDTH 7 0
BBX 10 15 -2 -4
BITMAP
01C0
0240
0240
0480
0500
0500
0480
0440
0840
0880
0F00
0800
0800
1000
E000
ENDCHAR

STARTCHAR agrave
ENCODING 224
SWIDTH 420 0
DWIDTH 7 0
BBX 6 11 2 0
BITMAP
40
20
10
00
3C
48
88
90
90
B4
D8
ENDCHAR

STARTCHAR aacute
ENCODING 225
SWIDTH 420 0
DWIDTH 7 0
BBX 6 11 2 0
BITMAP
04
08
10
00
3C
48
88
90
90
B4
D8
ENDCHAR

STARTCHAR acircumflex
ENCODING 226
SWIDTH 420 0
DWIDTH 7 0
BBX 6 11 2 0
BITMAP
10
28
44
00
3C
48
88
90
90
B4
D8
ENDCHAR

STARTCHAR atilde
ENCODING 227
SWIDTH 420 0
DWIDTH 7 0
BBX 7 10 2 0
BITMAP
32
4C
00
3C
48
88
90
90
B4
D8
ENDCHAR

STARTCHAR adieresis
ENCODING 228
SWIDTH 420 0
DWIDTH 7 0
BBX 6 9 2 0
BITMAP
14
00
3C
48
88
90
90
B4
D8
ENDCHAR

STARTCHAR aring
ENCODING 229
SWIDTH 420 0
DWIDTH 7 0
BBX 6 11 2 0
BITMAP
18
24
24
18
3C
48
88
90
90
B4
D8
ENDCHAR

STARTCHAR ae
ENCODING 230
SWIDTH 540 0
DWIDTH 9 0
BBX 7 7 2 0
BITMAP
3E
4A
92
9C
90
B2
DC
ENDCHAR

STARTCHAR ccedilla
ENCODING 231
SWIDTH 340 0
DWIDTH 5 0
BBX 4 9 2 -2
BITMAP
30
50
80
80
80
90
E0
40
80
ENDCHAR

STARTCHAR egrave
ENCODING 232
SWIDTH 340 0
DWIDTH 6 0
BBX 4 11 2 0
BITMAP
80
40
20
00
30
50
90
E0
80
90
E0
ENDCHAR

STARTCHAR eacute
ENCODING 233
SWIDTH 340 0
DWIDTH 6 0
BBX 5 11 2 0
BITMAP
08
10
20
00
30
50
90
E0
80
90
E0
ENDCHAR

STARTCHAR ecircumflex
ENCODING 234
SWIDTH 340 0
DWIDTH 6 0
BBX 5 11 2 0
BITMAP
20
50
88
00
30
50
90
E0
80
90
E0
ENDCHAR

STARTCHAR edieresis
ENCODING 235
SWIDTH 340 0
DWIDTH 6 0
BBX 5 9 2 0
BITMAP
28
00
30
50
90
E0
80
90
E0
ENDCHAR

STARTCHAR igrave
ENCODING 236
SWIDTH 240 0
DWIDTH 4 0
BBX 4 11 1 0
BITMAP
80
40
20
00
20
E0
20
40
40
50
60
ENDCHAR

STARTCHAR iacute
ENCODING 237
SWIDTH 240 0
DWIDTH 4 0
BBX 5 11 1 0
BITMAP
08
10
20
00
20
E0
20
40
40
50
60
ENDCHAR

STARTCHAR icircumflex
ENCODING 238
SWIDTH 240 0
DWIDTH 4 0
BBX 5 11 1 0
BITMAP
20
50
88
00
20
E0
20
40
40
50
60
ENDCHAR

STARTCHAR idieresis
ENCODING 239
SWIDTH 240 0
DWIDTH 4 0
BBX 4 9 1 0
BITMAP
50
00
20
E0
20
40
40
50
60
ENDCHAR

STARTCHAR eth
ENCODING 240
SWIDTH 400 0
DWIDTH 7 0
BBX 7 12 2 0
BITMAP
30
48
8E
38
08
28
48
88
88
88
90
E0
ENDCHAR

STARTCHAR ntilde
ENCODING 241
SWIDTH 460 0
DWIDTH 7 0
BBX 7 10 1 0
BITMAP
32
4C
00
2E
F2
24
44
48
8A
8C
ENDCHAR

STARTCHAR ograve
ENCODING 242
SWIDTH 400 0
DWIDTH 7 0
BBX 5 11 2 0
BITMAP
40
20
10
00
38
48
88
88
88
90
E0
ENDCHAR

STARTCHAR oacute
ENCODING 243
SWIDTH 400 0
DWIDTH 7 0
BBX 6 11 2 0
BITMAP
04
08
10
00
38
48
88
88
88
90
E0
ENDCHAR

STARTCHAR ocircumflex
ENCODING 244
SWIDTH 400 0
DWIDTH 7 0
BBX 6 11 2 0
BITMAP
10
28
44
00
38
48
88
88
88
90
E0
ENDCHAR

STARTCHAR otilde
ENCODING 245
SWIDTH 400 0
DWIDTH 7 0
BBX 6 10 2 0
BITMAP
64
98
00
38
48
88
88
88
90
E0
ENDCHAR

STARTCHAR odieresis
ENCODING 246
SWIDTH 400 0
DWIDTH 7 0
BBX 5 9 2 0
BITMAP
28
00
38
48
88
88
88
90
E0
ENDCHAR

STARTCHAR divide
ENCODING 247
SWIDTH 520 0
DWIDTH 9 0
BBX 7 7 2 0
BITMAP
10
10
00
FE
00
10
10
ENDCHAR

STARTCHAR oslash
ENCODING 248
SWIDTH 440 0
DWIDTH 7 0
BBX 7 11 1 -2
BITMAP
02
02
1C
24
4C
54
64
48
70
80
80
ENDCHAR

STARTCHAR ugrave
ENCODING 249
SWIDTH 460 0
DWIDTH 7 0
BBX 7 11 1 0
BITMAP
20
10
08
00
32
E2
24
44
48
5A
6C
ENDCHAR

STARTCHAR uacute
ENCODING 250
SWIDTH 460 0
DWIDTH 7 0
BBX 7 11 1 0
BITMAP
02
04
08
00
32
E2
24
44
48
5A
6C
ENDCHAR

STARTCHAR ucircumflex
ENCODING 251
SWIDTH 460 0
DWIDTH 7 0
BBX 7 11 1 0
BITMAP
08
14
22
00
32
E2
24
44
48
5A
6C
ENDCHAR

STARTCHAR udieresis
ENCODING 252
SWIDTH 460 0
DWIDTH 7 0
BBX 7 9 1 0
BITMAP
14
00
32
E2
24
44
48
5A
6C
ENDCHAR

STARTCHAR yacute
ENCODING 253
SWIDTH 400 0
DWIDTH 7 0
BBX 9 15 0 -4
BITMAP
0080
0100
0200
0000
1900
7100
1200
2200
2200
2C00
3400
0400
0400
0800
F000
ENDCHAR

STARTCHAR thorn
ENCODING 254
SWIDTH 440 0
DWIDTH 7 0
BBX 8 15 0 -4
BITMAP
03
04
08
08
17
19
11
11
22
26
38
20
40
40
E0
ENDCHAR

STARTCHAR ydieresis
ENCODING 255
SWIDTH 400 0
DWIDTH 7 0
BBX 8 13 0 -4
BITMAP
0A
00
19
71
12
22
22
2C
34
04
04
08
F0
ENDCHAR
ENDFONT
